# xmcd CD database file
#
# Track frame offsets:
#	150
#	15724
#	34329
#	48038
#	63913
#	78833
#	96974
#	111923
#	131814
#	151499
#	162421
#	178619
#
# Disc length: 2636 seconds
#
# Revision: 0
# Processed by: cddbd v1.5.1PL0 Copyright (c) Steve Scherf et al.
# Submitted via: CDex 1.51
#
DISCID=970a4a0c
DTITLE=Brian Crain - Moonlight
DYEAR=2000
DGENRE=New Age
TTITLE0=Butterfly Waltz
TTITLE1=Northern Lights
TTITLE2=Voice From The Past
TTITLE3=Moonlight
TTITLE4=Light In The Window
TTITLE5=Sunshine And Blossoms
TTITLE6=Joys Of The Heart
TTITLE7=A Walk In The Forest
TTITLE8=Secret Path
TTITLE9=Wishing Well
TTITLE10=Childhood Memories
TTITLE11=A Simple Life
EXTD=YEAR: 2000
EXTT0=
EXTT1=
EXTT2=
EXTT3=
EXTT4=
EXTT5=
EXTT6=
EXTT7=
EXTT8=
EXTT9=
EXTT10=
EXTT11=
PLAYORDER=
